Coordinates																																									
version=1																																									
nRows=36																																									
nColumns=42																																									
inDegrees=yes																																									
																																									
"Units are S.I. units (second, meters, Newtons, ...)"																																									
Angles are in degrees.																																									
																																									
endheader																																									
time	pelvis_tx	pelvis_ty	pelvis_tz	pelvis_tilt	pelvis_list	pelvis_rotation	hip_flexion_r	hip_adduction_r	hip_rotation_r	knee_angle_r	ankle_angle_r	subtalar_angle_r	mtp_angle_r	hip_flexion_l	hip_adduction_l	hip_rotation_l	knee_angle_l	ankle_angle_l	subtalar_angle_l	mtp_angle_l	lumbar_extension	lumbar_bending	lumbar_rotation	ground_force_vx	ground_force_vy	ground_force_vz	ground_force_px	ground_force_py	ground_force_pz	ground_force_vx	ground_force_vy	ground_force_vz	ground_force_px	ground_force_py	ground_force_pz	ground_torque_x	ground_torque_y	ground_torque_z	ground_torque_x	ground_torque_y	ground_torque_z
1.2	0.275844	0.673004	0.20076	-3.830839	-17.493498	88.16713	12.61308	0.218185	-3.133705	-44.8149	7.673649	0	0	45.40022	6.120831	-9.848364	-46.930523	13.976916	0	0	26.767598	-2.80135	2.758685	0	0	0	0	0	0	6.769269	153.32695	18.196463	0.253059	-0.000903	0.120977	0	0	0	0.000958	0.182844	-0.003356
1.21	0.275058	0.673059	0.190431	-4.316389	-16.912485	88.198669	11.810983	-0.847935	-3.846024	-45.505046	5.193988	0	0	44.014617	7.066541	-8.966117	-47.055376	14.107762	0	0	26.633795	-3.212259	2.700318	0	0	0	0	0	0	8.596739	174.857208	21.332792	0.252894	-0.002	0.118974	0	0	0	0.001202	0.229311	-0.004209
1.22	0.274321	0.673068	0.180229	-4.745804	-16.37125	88.219147	11.13239	-1.800311	-4.382524	-46.361319	2.701313	0	0	42.715983	7.94115	-8.127249	-47.27873	14.319414	0	0	26.513661	-3.569932	2.651569	0	0	0	0	0	0	9.821105	194.182755	23.552971	0.253043	-0.002911	0.11717	0	0	0	0.001367	0.260797	-0.004787
1.23	0.273702	0.673013	0.170288	-5.079403	-15.902545	88.227379	10.679066	-2.564144	-4.662027	-47.435589	0.279858	0	0	41.555619	8.68349	-7.370513	-47.626636	14.631606	0	0	26.415731	-3.841646	2.611411	0	0	0	0	0	0	10.430451	211.042572	24.842522	0.253479	-0.003592	0.115572	0	0	0	0.001425	0.27191	-0.004991
1.24	0.273248	0.6729	0.160695	-5.31003	-15.513776	88.221115	10.50344	-3.120476	-4.666143	-48.757186	-2.011657	0	0	40.541407	9.272499	-6.71837	-48.089118	15.034539	0	0	26.335029	-4.024385	2.584503	0	0	0	0	0	0	10.526313	225.43222	25.24419	0.254145	-0.00405	0.114201	0	0	0	0.00138	0.263272	-0.004833
1.25	0.272981	0.672744	0.151494	-5.45075	-15.199396	88.198837	10.62321	-3.487668	-4.425823	-50.335431	-4.121482	0	0	39.659377	9.713561	-6.179093	-48.6383	15.500804	0	0	26.26213	-4.133163	2.577035	0	0	0	0	0	0	10.283786	237.540268	24.879063	0.25498	-0.004319	0.113074	0	0	0	0.001259	0.240257	-0.00441
1.26	0.272901	0.672553	0.142705	-5.521752	-14.950432	88.161789	11.034795	-3.701418	-4.003129	-52.163104	-5.991437	0	0	38.891138	10.024319	-5.74978	-49.244766	15.997013	0	0	26.189182	-4.188933	2.592011	0	0	0	0	0	0	9.881584	247.61795	23.892004	0.255921	-0.004445	0.112191	0	0	0	0.001101	0.210064	-0.003856
1.27	0.272993	0.672331	0.134322	-5.542708	-14.755857	88.114151	11.718095	-3.801895	-3.474392	-54.218117	-7.554678	0	0	38.218265	10.225767	-5.420201	-49.884877	16.490915	0	0	26.109313	-4.211513	2.627642	0	0	0	0	0	0	9.457323	255.895767	22.443275	0.256911	-0.004472	0.111531	0	0	0	0.000938	0.178955	-0.003285
1.28	0.273236	0.672085	0.126325	-5.53039	-14.602067	88.061272	12.63998	-3.827583	-2.915666	-56.466096	-8.740332	0	0	37.621857	10.338181	-5.177186	-50.541617	16.954621	0	0	26.015098	-4.217116	2.678903	0	0	0	0	0	0	9.09269	262.548492	20.708862	0.257898	-0.004441	0.111042	0	0	0	0.000791	0.150867	-0.002769
1.29	0.273603	0.671823	0.11868	-5.497738	-14.474902	88.00808	13.760663	-3.811878	-2.392758	-58.863718	-9.482078	0	0	37.083737	10.379038	-5.007187	-51.203032	17.365846	0	0	25.899697	-4.217393	2.738377	0	0	0	0	0	0	8.826281	267.700867	18.846277	0.25883	-0.004382	0.110649	0	0	0	0.000677	0.129066	-0.002369
1.3	0.274065	0.671556	0.111347	-5.45168	-14.361697	87.959	15.039096	-3.778861	-1.955798	-61.360842	-9.729655	0	0	36.58764	10.360096	-4.897187	-51.861097	17.709325	0	0	25.758001	-4.217668	2.795943	0	0	0	0	0	0	8.684278	271.442108	16.951389	0.259654	-0.004317	0.110255	0	0	0	0.000631	0.120413	-0.00221
1.31	0.274601	0.671298	0.104287	-5.393028	-14.252648	87.916908	16.43727	-3.74171	-1.636204	-63.902813	-9.460089	0	0	36.119553	10.286058	-4.836584	-52.509955	17.977597	0	0	25.587408	-4.216888	2.8412	0	0	0	0	0	0	8.702129	273.860321	15.030459	0.26033	-0.004262	0.109757	0	0	0	0.000714	0.136158	-0.002499
1.32	0.275195	0.671062	0.097459	-5.320542	-14.142982	87.881828	17.925505	-3.706873	-1.446572	-66.434211	-8.685265	0	0	35.669082	10.157979	-4.819027	-53.142874	18.169796	0	0	25.38983	-4.211174	2.867088	0	0	0	0	0	0	8.913923	275.105865	13.077675	0.260845	-0.004222	0.109116	0	0	0	0.000958	0.182768	-0.003355
1.33	0.275834	0.670858	0.090828	-5.234185	-14.034233	87.851967	19.485283	-3.678992	-1.385216	-68.901883	-7.454804	0	0	35.230389	9.977948	-4.840902	-53.75042	18.289778	0	0	25.172732	-4.197189	2.869132	0	0	0	0	0	0	9.328459	275.421875	11.175936	0.261221	-0.004199	0.108385	0	0	0	0.001319	0.251608	-0.004618
1.34	0.276504	0.670689	0.084362	-5.133782	-13.932779	87.826683	21.107134	-3.66064	-1.442147	-71.255614	-5.85302	0	0	34.801258	9.749473	-4.898088	-54.321806	18.345403	0	0	24.947288	-4.171783	2.841458	0	0	0	0	0	0	9.932059	275.057281	9.399976	0.26149	-0.00419	0.107627	0	0	0	0.001725	0.329164	-0.006042
1.35	0.277197	0.670558	0.078033	-5.017987	-13.84642	87.806503	22.786136	-3.65061	-1.600684	-73.448917	-3.98878	0	0	34.380389	9.476027	-4.985824	-54.846545	18.348069	0	0	24.724906	-4.131403	2.777417	0	0	0	0	0	0	10.695268	274.236389	7.747968	0.261684	-0.004191	0.106891	0	0	0	0.002126	0.405509	-0.007443
1.36	0.277911	0.670467	0.071816	-4.887815	-13.780951	87.789024	24.518364	-3.646082	-1.834696	-75.441188	-1.981143	0	0	33.964171	9.162543	-5.102157	-55.313706	18.311167	0	0	24.514572	-4.074621	2.676893	0	0	0	0	0	0	11.572848	273.159821	6.17038	0.26183	-0.004197	0.106211	0	0	0	0.002484	0.473836	-0.008698
1.37	0.278652	0.670417	0.065686	-4.748037	-13.739244	87.767975	26.298938	-3.644698	-2.110687	-77.198794	0.054774	0	0	33.546338	8.816431	-5.248204	-55.712029	18.248433	0	0	24.322411	-4.003062	2.549492	0	0	0	0	0	0	12.510388	271.982178	4.599143	0.261955	-0.004206	0.105598	0	0	0	0.002776	0.529547	-0.00972
1.38	0.279427	0.670411	0.059619	-4.601809	-13.722119	87.739227	28.119715	-3.642841	-2.398539	-78.693301	2.021005	0	0	33.120028	8.445234	-5.42159	-56.033181	18.173281	0	0	24.152054	-3.917633	2.406792	0	0	0	0	0	0	13.448476	270.808594	2.97478	0.262088	-0.004215	0.105051	0	0	0	0.002988	0.57001	-0.010463
1.39	0.280236	0.670448	0.05359	-4.446341	-13.728642	87.7062	29.966789	-3.634572	-2.680217	-79.899512	3.84694	0	0	32.678886	8.05526	-5.610468	-56.273911	18.098331	0	0	24.004433	-3.815733	2.253664	0	0	0	0	0	0	14.327661	269.696442	1.270852	0.262249	-0.004226	0.104557	0	0	0	0.003116	0.594509	-0.010913
1.4	0.281069	0.67053	0.047573	-4.275772	-13.756277	87.678993	31.820663	-3.615069	-2.949376	-80.795619	5.492375	0	0	32.216889	7.654206	-5.794564	-56.434503	18.033958	0	0	23.878271	-3.693756	2.087513	0	0	0	0	0	0	15.090911	268.666718	-0.501724	0.262462	-0.00424	0.104105	0	0	0	0.003161	0.602923	-0.011067
1.41	0.281911	0.670658	0.041542	-4.086441	-13.802017	87.670036	33.659121	-3.584823	-3.206705	-81.364478	6.944604	0	0	31.728933	7.253924	-5.950419	-56.516042	17.986644	0	0	23.771852	-3.551137	1.901883	0	0	0	0	0	0	15.685518	267.706726	-2.308554	0.262743	-0.004258	0.103679	0	0	0	0.003121	0.59543	-0.010929
1.42	0.282745	0.67083	0.03547	-3.877478	-13.863474	87.690933	35.459501	-3.54809	-3.456179	-81.593194	8.212576	0	0	31.21168	6.867772	-6.056235	-56.519829	17.958951	0	0	23.684243	-3.390345	1.689417	0	0	0	0	0	0	16.069275	266.795929	-4.113379	0.263102	-0.004284	0.103267	0	0	0	0.003002	0.572711	-0.010512
1.43	0.283563	0.671046	0.029331	-3.648062	-13.938998	87.750381	37.199328	-3.507647	-3.702661	-81.471637	9.318625	0	0	30.663424	6.504883	-6.095329	-56.447866	17.950765	0	0	23.61534	-3.213993	1.444108	0	0	0	0	0	0	16.218237	265.935181	-5.894047	0.263548	-0.004318	0.102864	0	0	0	0.002813	0.536651	-0.009851
1.44	0.284361	0.671306	0.023102	-3.396833	-14.028346	87.852783	38.857892	-3.463152	-3.950144	-80.991714	10.289537	0	0	30.084094	6.168316	-6.058018	-56.30213	17.959976	0	0	23.566524	-3.023652	1.163822	0	0	0	0	0	0	16.130869	265.138824	-7.657229	0.264082	-0.004356	0.10247	0	0	0	0.00257	0.490324	-0.009
1.45	0.285144	0.671609	0.016762	-3.123362	-14.133913	87.998123	40.418703	-3.41296	-4.200601	-80.147981	11.149432	0	0	29.47592	5.857027	-5.941661	-56.083079	17.982473	0	0	23.541984	-2.820675	0.851776	0	0	0	0	0	0	15.826855	264.422516	-9.428391	0.264691	-0.004394	0.102087	0	0	0	0.002293	0.437363	-0.008028
1.46	0.285918	0.671951	0.010291	-2.828017	-14.260796	88.182838	41.870006	-3.354593	-4.454071	-78.937917	11.914988	0	0	28.84324	5.566766	-5.74936	-55.789272	18.012609	0	0	23.548587	-2.606195	0.515188	0	0	0	0	0	0	15.340386	263.800354	-11.237849	0.265357	-0.004425	0.101724	0	0	0	0.001998	0.381236	-0.006998
1.47	0.286695	0.67233	0.003672	-2.509178	-14.415179	88.402122	43.202613	-3.282906	-4.710673	-77.361578	12.592222	0	0	28.19108	5.28844	-5.487524	-55.418523	18.044504	0	0	23.593951	-2.379102	0.161162	0	0	0	0	0	0	14.717998	263.265808	-13.110391	0.266063	-0.004446	0.101396	0	0	0	0.001706	0.325484	-0.005974
1.48	0.287486	0.672745	-0.003109	-2.16148	-14.602203	88.651619	44.407441	-3.18909	-4.972122	-75.421954	13.174995	0	0	27.523156	5.007495	-5.163848	-54.969062	18.0735	0	0	23.684108	-2.134887	-0.207245	0	0	0	0	0	0	14.012333	262.765137	-15.058414	0.266793	-0.004454	0.101115	0	0	0	0.001432	0.273229	-0.005015
1.49	0.288305	0.673196	-0.010066	-1.77917	-14.824229	88.926445	45.475242	-3.063207	-5.239215	-73.128199	13.645524	0	0	26.839754	4.707831	-4.788172	-54.438684	18.096446	0	0	23.822038	-1.868549	-0.590036	0	0	0	0	0	0	13.274843	262.205597	-17.0723	0.267529	-0.00445	0.100892	0	0	0	0.001189	0.226727	-0.004162
1.5	0.289168	0.673681	-0.017214	-1.363719	-15.080088	89.217827	46.398797	-2.899957	-5.50631	-70.500926	13.976602	0	0	26.136122	4.379706	-4.37561	-53.822181	18.110231	0	0	24.007357	-1.580855	-0.98381	0	0	0	0	0	0	12.552377	261.469208	-19.128931	0.268259	-0.004436	0.100733	0	0	0	0.000982	0.187239	-0.003437
1.51	0.290094	0.674197	-0.024567	-0.928353	-15.365107	89.512566	47.174959	-2.703324	-5.759388	-67.576812	14.135095	0	0	25.402443	4.025252	-3.94722	-53.110526	18.110305	0	0	24.236615	-1.28228	-1.378237	0	0	0	0	0	0	11.889225	260.435089	-21.202274	0.268976	-0.004415	0.100642	0	0	0	0.000815	0.155509	-0.002854
1.52	0.291099	0.674733	-0.032142	-0.492544	-15.671591	89.797203	47.804023	-2.483767	-5.981782	-64.409128	14.085944	0	0	24.625817	3.65411	-3.526089	-52.294514	18.091306	0	0	24.503657	-0.988891	-1.76131	0	0	0	0	0	0	11.323948	258.990875	-23.277563	0.269667	-0.004392	0.100614	0	0	0	0.000692	0.131961	-0.002422
1.53	0.2922	0.675278	-0.039957	-0.0739	-15.989301	90.061409	48.28802	-2.251011	-6.159493	-61.066153	13.797132	0	0	23.792428	3.275062	-3.133994	-51.36919	18.047935	0	0	24.79994	-0.715941	-2.124897	0	0	0	0	0	0	10.883622	257.034698	-25.360346	0.270324	-0.004366	0.100639	0	0	0	0.000608	0.116007	-0.002129
1.54	0.293415	0.675815	-0.048033	0.312779	-16.305763	90.297867	48.630704	-2.011669	-6.280365	-57.631183	13.247182	0	0	22.888449	2.894695	-2.790539	-50.33485	17.973571	0	0	25.114889	-0.477106	-2.4642	0	0	0	0	0	0	10.579051	254.471252	-27.468767	0.270932	-0.004334	0.100705	0	0	0	0.000556	0.106139	-0.001948
1.55	0.294758	0.676328	-0.056391	0.65606	-16.606588	90.503014	48.837283	-1.769889	-6.335171	-54.201608	12.433676	0	0	21.900981	2.518099	-2.510399	-49.197603	17.859618	0	0	25.436338	-0.283403	-2.777134	0	0	0	0	0	0	10.401866	251.207642	-29.615133	0.271474	-0.004293	0.100784	0	0	0	0.000524	0.099878	-0.001833
